<?xml version="1.0" standalone="no"?><svg xmlns="http://www.w3.org/2000/svg" viewBox="0 0 1440 320"><path fill="#f3f4f5" fill-opacity="1" d="M0,288L21.8,282.7C43.6,277,87,267,131,224C174.5,181,218,107,262,96C305.5,85,349,139,393,138.7C436.4,139,480,85,524,64C567.3,43,611,53,655,85.3C698.2,117,742,171,785,165.3C829.1,160,873,96,916,58.7C960,21,1004,11,1047,42.7C1090.9,75,1135,149,1178,154.7C1221.8,160,1265,96,1309,101.3C1352.7,107,1396,181,1418,218.7L1440,256L1440,320L1418.2,320C1396.4,320,1353,320,1309,320C1265.5,320,1222,320,1178,320C1134.5,320,1091,320,1047,320C1003.6,320,960,320,916,320C872.7,320,829,320,785,320C741.8,320,698,320,655,320C610.9,320,567,320,524,320C480,320,436,320,393,320C349.1,320,305,320,262,320C218.2,320,175,320,131,320C87.3,320,44,320,22,320L0,320Z"></path></svg>