<svg id="Icons" xmlns="http://www.w3.org/2000/svg" viewBox="0 0 288 288"><defs><style>.cls-1{fill:none;}.cls-2{fill:#939699;}.cls-3{fill:#4e5052;}.cls-4{fill:#cbcece;}.cls-5{fill:#f29111;}.cls-6{fill:#8aadbf;}</style></defs><title>OCIC_Technology_Development_Detailed_RGB</title><rect class="cls-1" width="288" height="288"/><path class="cls-2" d="M237,60H81a3,3,0,0,0-3,3V186H240V63A3,3,0,0,0,237,60ZM123,180H84V81h39Zm111,0H129V81H234Z"/><rect class="cls-3" x="84" y="81" width="39" height="99"/><rect class="cls-3" x="129" y="81" width="105" height="99"/><rect class="cls-4" x="84" y="66" width="9" height="9"/><rect class="cls-2" x="93" y="123" width="6" height="99"/><path class="cls-2" d="M207,102H51a3,3,0,0,0-3,3V228H210V105A3,3,0,0,0,207,102ZM93,222H54V123H93Zm111,0H99V123H204Z"/><rect class="cls-3" x="54" y="123" width="39" height="99"/><rect class="cls-3" x="99" y="123" width="105" height="99"/><rect class="cls-4" x="54" y="108" width="9" height="9"/><path class="cls-5" d="M132.68,154.35l-23.91,14a1.57,1.57,0,0,0-.77,1.35V176a1.57,1.57,0,0,0,.81,1.37l23.89,13.28a.78.78,0,0,0,1.16-.69v-5.82a1.57,1.57,0,0,0-.81-1.37l-17.89-9.94,17.93-10.53a1.57,1.57,0,0,0,.77-1.35V155A.78.78,0,0,0,132.68,154.35Zm28.22-.66h-4.7a1.83,1.83,0,0,0-1.59,1.1l-13.28,35.42a.76.76,0,0,0,.76,1.1h4.7a1.83,1.83,0,0,0,1.59-1.1l13.28-35.42A.76.76,0,0,0,160.91,153.69Zm33.29,13.92L170.3,154.34a.78.78,0,0,0-1.16.69v5.82a1.57,1.57,0,0,0,.81,1.37l17.89,9.94-17.93,10.53a1.57,1.57,0,0,0-.77,1.35v5.91a.78.78,0,0,0,1.18.68l23.91-14a1.57,1.57,0,0,0,.77-1.35V169A1.57,1.57,0,0,0,194.19,167.61Z"/><path class="cls-6" d="M69,198H87v-6H69Zm-9-15H87v-6H60Zm9,30H87v-6H69Zm0-45H87v-6H69Zm0-15H87v-6H69Zm-9-21v6H87v-6Z"/></svg>