<svg id="Icons" xmlns="http://www.w3.org/2000/svg" viewBox="0 0 288 288"><defs><style>.cls-1{fill:none;}.cls-2{fill:#cad9de;}.cls-3{fill:#fff;}.cls-4{fill:#ad5219;}.cls-5{fill:#f29111;}.cls-6{fill:#cf7215;}.cls-7{fill:#6d8c9e;}</style></defs><title>OCIC_Business_Product-Development_Detailed_RGB</title><rect class="cls-1" width="288" height="288"/><rect class="cls-2" x="48" y="69" width="192" height="150"/><path class="cls-3" d="M54,75V213H234V75Zm3,3H81v87H57Zm0,132V168H81v42Zm174,0H84V78H231Z"/><polygon class="cls-4" points="192 159 165 148.2 165 110.4 192 99.6 192 159"/><polygon class="cls-5" points="192 99.6 219 110.4 219 148.2 192 159 192 99.6"/><polygon class="cls-6" points="192 99.6 165 110.4 192 121.2 219 110.4 192 99.6"/><polygon class="cls-7" points="216 171 216 177 168 177 168 171 165 171 165 186 168 186 168 180 216 180 216 186 219 186 219 171 216 171"/><path class="cls-7" d="M147,105a3,3,0,0,1-3,3H123a3,3,0,0,1-3-3h0a3,3,0,0,1,3-3h21a3,3,0,0,1,3,3Z"/><path class="cls-7" d="M141,129a3,3,0,0,1-3,3H123a3,3,0,0,1-3-3h0a3,3,0,0,1,3-3h15a3,3,0,0,1,3,3Z"/><path class="cls-7" d="M147,153a3,3,0,0,1-3,3H123a3,3,0,0,1-3-3h0a3,3,0,0,1,3-3h21a3,3,0,0,1,3,3Z"/><path class="cls-5" d="M114,105a3,3,0,0,1-3,3H99a3,3,0,0,1-3-3h0a3,3,0,0,1,3-3h12a3,3,0,0,1,3,3Z"/><path class="cls-5" d="M114,129a3,3,0,0,1-3,3H99a3,3,0,0,1-3-3h0a3,3,0,0,1,3-3h12a3,3,0,0,1,3,3Z"/><path class="cls-5" d="M114,153a3,3,0,0,1-3,3H99a3,3,0,0,1-3-3h0a3,3,0,0,1,3-3h12a3,3,0,0,1,3,3Z"/></svg>