<svg id="Icons" xmlns="http://www.w3.org/2000/svg" viewBox="0 0 288 288"><defs><style>.cls-1{fill:none;}.cls-2{fill:#b9bbbd;}.cls-2,.cls-3{fill-rule:evenodd;}.cls-3{fill:#e9eaea;}.cls-4{fill:#939699;}.cls-5{fill:#324b5c;}.cls-6{fill:#f29111;}.cls-7{fill:#f80000;}.cls-8{fill:#8aadbf;}.cls-9{fill:#942645;}</style></defs><title>OCIC_Business_Reports_Detailed_RGB</title><rect class="cls-1" width="288" height="288"/><polygon class="cls-2" points="69 78 99 78 99 48 69 78"/><polygon class="cls-3" points="99 48 219 48 219 240 69 240 69 78 99 78 99 48"/><rect class="cls-4" x="99" y="204" width="90" height="6"/><rect class="cls-4" x="99" y="183" width="90" height="6"/><path class="cls-5" d="M144,130.5h34.5a34.33,34.33,0,0,0-4.63-17.25L144,130.5Z"/><path class="cls-6" d="M167.21,90.29A34.32,34.32,0,0,0,150,85.67v34.5l29.87-17.25A34.65,34.65,0,0,0,167.21,90.29Z"/><path class="cls-7" d="M144,130.5l-17.25,29.87A34.5,34.5,0,0,0,178.5,130.5Z"/><path class="cls-8" d="M126.75,100.63a34.65,34.65,0,0,0-12.63,12.63L144,130.5V96A34.32,34.32,0,0,0,126.75,100.63Z"/><path class="cls-9" d="M114.13,113.25a34.5,34.5,0,0,0,12.63,47.12L144,130.5Z"/></svg>